# xmcd
#
# Track frame offsets:
#	150
#	18386
#	35337
#	57274
#
# Disc length: 1181 seconds
#
# Revision: 0
# Processed by: cddbd v1.5.2PL0 Copyright (c) Steve Scherf et al.
# Submitted via: EasyCDDAExtractor 10.2.0.1
#
DISCID=29049b04
DTITLE=Eric Clapton - I Ain't Gonna Stand For It [Single]
DYEAR=2001
DGENRE=Blues
TTITLE0=I Ain't Gonna Stand for It - radio edit
TTITLE1=I Ain't Gonna Stand for It - beatchuggers payback mix radio edit
TTITLE2=I Ain't Gonna Stand for It - album
TTITLE3=I Ain't Gonna Stand for It - beatchuggers payback mix
EXTD=
EXTT0=
EXTT1=
EXTT2=
EXTT3=
PLAYORDER=
